<svg width="145" height="25" xmlns="http://www.w3.org/2000/svg" xmlns:xlink="http://www.w3.org/1999/xlink" xml:space="preserve" overflow="hidden"><defs><clipPath id="clip0"><rect x="619" y="410" width="145" height="25"/></clipPath></defs><g clip-path="url(#clip0)" transform="translate(-619 -410)"><path d="M62.9271 19.7094C62.885 19.7549 62.8343 19.7913 62.7777 19.8163 62.7212 19.8412 62.6598 19.8542 62.5979 19.8544L61.5206 19.8544C61.3973 19.8496 61.2809 19.7985 61.1939 19.7115 61.1064 19.6244 61.0556 19.5076 61.0508 19.3846L61.0508 18.8669C60.4983 19.1916 59.9184 19.4665 59.3176 19.6886 58.7168 19.9091 58.0812 20.0206 57.4413 20.0177 56.956 20.0197 56.4722 19.9606 56.0014 19.8418 55.5519 19.7305 55.1338 19.5175 54.7795 19.2193 54.4112 18.8989 54.1227 18.4968 53.9371 18.0452 53.7075 17.464 53.5997 16.8418 53.6205 16.2173L53.6205 15.9365C53.607 15.368 53.7056 14.8024 53.9105 14.2719 54.1145 13.7946 54.4489 13.3849 54.8762 13.0901 55.4026 12.7331 55.9971 12.4886 56.622 12.3719 57.4939 12.2023 58.3813 12.1244 59.2692 12.1394L61.0049 12.1394 61.0049 11.2012C61.0049 10.2157 60.8159 9.5294 60.4432 9.14128 60.0706 8.75317 59.4195 8.55355 58.4983 8.55355 57.7298 8.55355 57.0585 8.57143 56.4818 8.61203 55.9052 8.65263 55.3789 8.69372 54.9096 8.73963L54.794 8.73963C54.6921 8.74128 54.591 8.71755 54.5007 8.67052 54.4137 8.62218 54.3731 8.51972 54.3731 8.36408L54.3731 7.54242C54.3731 7.29205 54.5364 7.14415 54.8632 7.09582 55.3479 7.01911 55.8758 6.94854 56.4461 6.88412 57.1281 6.81766 57.8129 6.78697 58.4983 6.79228 60.1218 6.79228 61.2896 7.17895 62.0005 7.95228 62.7594 8.85699 63.1412 10.0185 63.0677 11.1969L63.0677 19.3826C63.0682 19.4438 63.0561 19.5045 63.032 19.5607 63.0078 19.617 62.9725 19.6676 62.9276 19.7094L62.9271 19.7094ZM61.0049 13.616 59.2692 13.616C58.681 13.6075 58.0933 13.6503 57.5128 13.7436 57.1218 13.8005 56.7462 13.9368 56.4098 14.1443 56.1522 14.3122 55.9555 14.5581 55.8482 14.8461 55.7303 15.1891 55.6747 15.5506 55.6848 15.9133L55.6848 16.1941C55.6848 17.0389 55.8719 17.6056 56.2465 17.894 56.7158 18.211 57.2764 18.364 57.8415 18.329 58.3736 18.3308 58.9029 18.2516 59.4113 18.0941 59.9657 17.9142 60.5003 17.6781 61.0063 17.3894L61.0049 13.616Z" fill="#FFFFFF" transform="matrix(1 0 0 1.0142 619 410)"/><path d="M119.907 8.3839C119.813 8.44601 119.708 8.49009 119.598 8.51392L118.755 8.67728C118.999 8.93514 119.19 9.23761 119.32 9.56807 119.492 10.0569 119.571 10.5739 119.552 11.092L119.552 11.2786C119.588 11.8367 119.494 12.3955 119.279 12.9117 119.064 13.4279 118.733 13.8876 118.311 14.2549 117.482 14.9442 116.164 15.2888 114.348 15.2888 113.823 15.2973 113.297 15.2538 112.781 15.1588 112.388 15.0832 112.003 14.9699 111.632 14.8204 111.464 14.8778 111.318 14.9848 111.214 15.1271 111.109 15.2694 111.05 15.4403 111.044 15.617 111.039 15.7022 111.05 15.7878 111.078 15.8686 111.106 15.9493 111.15 16.0236 111.208 16.0868 111.371 16.2235 111.564 16.3197 111.772 16.3676L115.264 17.2584C115.84 17.3989 116.399 17.5555 116.939 17.7282 117.444 17.8838 117.929 18.0998 118.383 18.3715 118.785 18.6104 119.129 18.9346 119.392 19.3212 119.653 19.7344 119.784 20.2166 119.767 20.705L119.767 20.8916C119.787 21.4011 119.686 21.9082 119.471 22.3706 119.257 22.8331 118.934 23.2374 118.531 23.5499 117.712 24.1982 116.341 24.5224 114.419 24.5224 112.558 24.5224 111.2 24.1903 110.327 23.5267 109.906 23.2101 109.568 22.7963 109.342 22.3207 109.116 21.8451 109.008 21.3217 109.028 20.7954L109.028 20.5861C109.018 19.9706 109.172 19.3636 109.475 18.8273 109.732 18.355 110.084 17.9407 110.508 17.6098L110.34 17.5382C109.983 17.3852 109.692 17.1113 109.518 16.7649 109.349 16.439 109.261 16.0776 109.26 15.7107L109.26 15.6875C109.264 15.3599 109.345 15.0379 109.498 14.7479 109.658 14.4292 109.911 14.1673 110.225 13.9973 109.873 13.6702 109.596 13.2704 109.413 12.8257 109.224 12.3325 109.133 11.8072 109.145 11.2791L109.145 11.0906C109.144 10.5727 109.227 10.0581 109.39 9.56662 109.559 9.06008 109.848 8.60203 110.232 8.23165 110.693 7.80424 111.242 7.48345 111.84 7.29205 112.65 7.03762 113.496 6.9194 114.345 6.94212L119.483 6.94212C119.552 6.94144 119.62 6.95439 119.684 6.9803 119.748 7.00616 119.806 7.04444 119.856 7.09292 119.907 7.13835 119.949 7.19447 119.977 7.25749 120.005 7.32047 120.02 7.38881 120.019 7.45783L120.019 8.06683C120.027 8.12469 120.02 8.18356 120.001 8.23861 119.981 8.29361 119.949 8.34325 119.907 8.38342L119.907 8.3839ZM117.701 20.7026C117.709 20.4925 117.656 20.2846 117.551 20.1028 117.421 19.9169 117.251 19.7618 117.055 19.6485 116.779 19.4841 116.484 19.3543 116.177 19.2618 115.817 19.1445 115.372 19.0156 114.842 18.8751L112.195 18.1956C111.869 18.4701 111.588 18.794 111.362 19.1555 111.128 19.5948 111.017 20.09 111.043 20.5876L111.043 20.7969C111.039 21.1017 111.094 21.4044 111.207 21.6876 111.323 21.9566 111.514 22.187 111.756 22.3522 112.072 22.5541 112.422 22.6968 112.79 22.7732 113.325 22.8857 113.871 22.9371 114.419 22.9264 114.97 22.938 115.521 22.8911 116.062 22.7863 116.417 22.7197 116.755 22.5844 117.058 22.388 117.287 22.2329 117.464 22.0123 117.566 21.7548 117.662 21.4752 117.709 21.1807 117.703 20.8848L117.701 20.7026ZM117.492 11.0906C117.494 10.7536 117.447 10.4181 117.351 10.0949 117.259 9.79407 117.089 9.52287 116.859 9.30852 116.582 9.06497 116.255 8.88541 115.901 8.78265 115.394 8.63422 114.867 8.5667 114.339 8.58255 113.796 8.56718 113.255 8.63867 112.736 8.79425 112.378 8.90213 112.05 9.09082 111.777 9.34573 111.556 9.56729 111.396 9.84144 111.31 10.1423 111.224 10.4515 111.182 10.7711 111.185 11.092L111.185 11.2786C111.186 11.5481 111.225 11.8162 111.3 12.0751 111.384 12.3679 111.54 12.6349 111.754 12.8513 112.027 13.113 112.354 13.3124 112.712 13.4357 113.235 13.6102 113.786 13.6897 114.338 13.6706 114.864 13.6839 115.39 13.6247 115.9 13.4947 116.252 13.4057 116.58 13.2373 116.857 13.0021 117.087 12.797 117.257 12.5343 117.35 12.2414 117.445 11.9295 117.492 11.6051 117.49 11.2791L117.492 11.0906Z" fill="#FFFFFF" transform="matrix(1 0 0 1.0142 619 410)"/><path d="M131.92 14.0935 124.067 14.0935 124.067 14.4227C124.067 15.8114 124.341 16.796 124.889 17.3763 125.213 17.6818 125.597 17.9165 126.017 18.0654 126.437 18.2144 126.883 18.2743 127.327 18.2415 128.016 18.2415 128.747 18.2184 129.52 18.1724 130.293 18.124 130.952 18.0626 131.501 17.9834L131.617 17.9834C131.707 17.9832 131.796 18.0079 131.874 18.0549 131.915 18.083 131.948 18.1219 131.969 18.1673 131.99 18.2127 131.997 18.2629 131.992 18.3125L131.992 19.1091C131.999 19.2365 131.967 19.3633 131.9 19.4716 131.802 19.5757 131.668 19.6387 131.525 19.6475 130.851 19.7725 130.183 19.8703 129.521 19.9409 128.792 20.0143 128.06 20.0501 127.328 20.0482 126.662 20.0481 126 19.9571 125.36 19.7775 124.731 19.6032 124.15 19.2893 123.66 18.8592 123.135 18.3845 122.727 17.7959 122.465 17.1385 122.133 16.2717 121.978 15.3474 122.008 14.4198L122.008 12.3119C121.929 10.855 122.406 9.42239 123.343 8.30415 124.234 7.31878 125.523 6.82612 127.21 6.82612 127.978 6.81007 128.743 6.9413 129.461 7.21278 130.073 7.45266 130.622 7.82884 131.067 8.31285 131.51 8.81692 131.84 9.40915 132.037 10.0504 132.262 10.7828 132.372 11.5457 132.364 12.3119L132.364 13.5783C132.364 13.9229 132.216 14.094 131.92 14.094L131.92 14.0935ZM130.301 12.3124C130.301 10.9849 130.046 10.0395 129.536 9.47623 129.233 9.17676 128.868 8.94626 128.468 8.80044 128.068 8.65461 127.641 8.59695 127.216 8.63137 126.785 8.60328 126.353 8.66834 125.949 8.82204 125.546 8.97574 125.18 9.21451 124.877 9.52215 124.336 10.117 124.065 11.0471 124.065 12.3124L124.065 12.5241 130.3 12.5241 130.301 12.3124Z" fill="#FFFFFF" transform="matrix(1 0 0 1.0142 619 410)"/><path d="M44.6982 19.5484C44.6982 19.75 44.6141 19.8548 44.4406 19.8548L42.7528 19.8548C42.6516 19.8595 42.551 19.8394 42.4594 19.7964 42.3634 19.7294 42.2804 19.6456 42.2143 19.5489L37.5507 13.7847 37.5507 19.385C37.5459 19.5081 37.4948 19.6249 37.4078 19.712 37.3207 19.799 37.2039 19.8501 37.0808 19.8548L35.9552 19.8548C35.8321 19.8501 35.7153 19.799 35.6282 19.712 35.5412 19.6249 35.4902 19.5081 35.4854 19.385L35.4854 2.48627C35.4856 2.42437 35.4985 2.36318 35.5235 2.30654 35.5484 2.2499 35.5848 2.19903 35.6304 2.15712 35.6721 2.11235 35.7227 2.07676 35.779 2.05263 35.8353 2.0285 35.8959 2.01635 35.9571 2.01695L37.0799 2.01695C37.1411 2.01635 37.2017 2.0285 37.258 2.05263 37.3142 2.07676 37.3649 2.11235 37.4066 2.15712 37.4521 2.19903 37.4885 2.2499 37.5135 2.30654 37.5385 2.36318 37.5514 2.42437 37.5516 2.48627L37.5516 12.4468 42.2399 7.17267C42.298 7.10882 42.3651 7.05381 42.4391 7.0093 42.5238 6.97073 42.6169 6.9541 42.7097 6.96097L44.3487 6.96097C44.5836 6.96097 44.7011 7.04797 44.7011 7.21858 44.7005 7.2673 44.6897 7.31539 44.6695 7.35977 44.6492 7.40409 44.62 7.44377 44.5836 7.4762L39.424 13.0572 44.6291 19.3367C44.6786 19.3957 44.7034 19.4716 44.6982 19.5484Z" fill="#FFFFFF" transform="matrix(1 0 0 1.0142 619 410)"/><path d="M51.9989 8.6043C51.4634 8.60261 50.9303 8.67733 50.416 8.82615 49.835 9.00701 49.2802 9.26221 48.7645 9.58547L48.7645 19.3855C48.7611 19.5091 48.7103 19.6266 48.6228 19.714 48.5358 19.8013 48.4184 19.8519 48.2947 19.8553L47.1463 19.8553C47.0861 19.8556 47.0266 19.8428 46.972 19.8178 46.9173 19.7927 46.8687 19.7561 46.8297 19.7103 46.7466 19.622 46.7008 19.5049 46.7021 19.3836L46.7021 7.43125C46.7016 7.30935 46.7472 7.19181 46.8297 7.1021 46.869 7.05696 46.9177 7.02095 46.9724 6.99654 47.0271 6.97218 47.0864 6.96005 47.1463 6.96097L48.2512 6.96097C48.3113 6.96068 48.3706 6.97348 48.4256 6.99852 48.4803 7.02356 48.5286 7.06024 48.5677 7.10597 48.6504 7.19659 48.6963 7.3152 48.6954 7.43802L48.6954 7.93682C49.2159 7.56291 49.7877 7.26672 50.3933 7.05763 50.9114 6.88735 51.4533 6.79944 51.9989 6.79712 52.3281 6.79712 52.4914 6.93728 52.4914 7.22342L52.4914 8.19685C52.4914 8.46752 52.3281 8.60285 51.9989 8.60285" fill="#FFFFFF" transform="matrix(1 0 0 1.0142 619 410)"/><path d="M87.8956 8.6043C87.3601 8.60261 86.827 8.67733 86.3127 8.82615 85.7317 9.00701 85.1769 9.26221 84.6611 9.58547L84.6611 19.3855C84.6587 19.5089 84.6085 19.6266 84.5215 19.7141 84.4345 19.8015 84.317 19.8521 84.1938 19.8553L83.0429 19.8553C82.9835 19.8561 82.9245 19.8439 82.8704 19.8197 82.8163 19.7955 82.7679 19.7598 82.7288 19.7152 82.6442 19.6265 82.5978 19.5084 82.5988 19.386L82.5988 7.43125C82.5973 7.30945 82.6442 7.192 82.7288 7.10452 82.767 7.05821 82.8148 7.02109 82.8694 6.99596 82.9236 6.97087 82.983 6.9584 83.0429 6.95952L84.1459 6.95952C84.2058 6.95923 84.2653 6.97203 84.3204 6.99707 84.375 7.02211 84.4233 7.05879 84.4625 7.10452 84.5456 7.19587 84.5915 7.31535 84.5901 7.43898L84.5901 7.93682C85.1116 7.56373 85.6839 7.26759 86.29 7.05763 86.8081 6.88755 87.3499 6.79963 87.8956 6.79712 88.2224 6.79712 88.3881 6.94212 88.3881 7.22342L88.3881 8.19975C88.3881 8.468 88.2224 8.60285 87.8956 8.60285" fill="#FFFFFF" transform="matrix(1 0 0 1.0142 619 410)"/><path d="M92.7889 19.7147C92.7468 19.7592 92.6966 19.7947 92.64 19.8188 92.5839 19.843 92.5235 19.8552 92.4621 19.8548L91.3365 19.8548C91.2751 19.8552 91.2142 19.843 91.1571 19.8188 91.1006 19.7947 91.0498 19.7593 91.0073 19.7147 90.9633 19.6723 90.9285 19.6215 90.9044 19.5654 90.8802 19.5093 90.8676 19.449 90.8671 19.3879L90.8671 7.43367C90.8696 7.30984 90.9198 7.19176 91.0073 7.10423 91.0953 7.01665 91.2132 6.96633 91.337 6.96387L92.4636 6.96387C92.525 6.96348 92.5854 6.97576 92.6415 6.99988 92.698 7.02399 92.7483 7.05947 92.7903 7.10403 92.8353 7.14613 92.871 7.19712 92.8952 7.25382 92.9194 7.31046 92.9315 7.37156 92.9305 7.43318L92.9305 19.3879C92.9305 19.4491 92.9184 19.5096 92.8942 19.5658 92.8701 19.622 92.8348 19.6726 92.7903 19.7147" fill="#FFFFFF" transform="matrix(1 0 0 1.0142 619 410)"/><path d="M106.082 19.7147C106.039 19.7591 105.989 19.7944 105.933 19.8185 105.877 19.8426 105.816 19.8549 105.755 19.8548L104.629 19.8548C104.567 19.8552 104.506 19.843 104.449 19.8188 104.393 19.7947 104.342 19.7593 104.299 19.7147 104.255 19.6729 104.219 19.6223 104.195 19.5661 104.171 19.5098 104.159 19.4491 104.159 19.3879L104.159 11.6918C104.169 11.1922 104.118 10.6932 104.006 10.2061 103.928 9.85666 103.767 9.53148 103.535 9.25873 103.32 9.02151 103.045 8.84766 102.738 8.75607 102.362 8.64587 101.971 8.5942 101.578 8.60285 101.052 8.60744 100.53 8.69434 100.032 8.86047 99.4777 9.04201 98.9374 9.26115 98.4134 9.51635L98.4134 19.3879C98.41 19.5109 98.3598 19.6279 98.2728 19.7149 98.1863 19.8019 98.0688 19.8521 97.946 19.8553L96.7996 19.8553C96.7396 19.8569 96.6802 19.8451 96.6256 19.8209 96.571 19.7967 96.5221 19.7605 96.483 19.7152 96.3999 19.627 96.3539 19.5098 96.3554 19.3884L96.3554 7.43367C96.353 7.31187 96.3989 7.19403 96.483 7.10597 96.5221 7.06058 96.571 7.02448 96.6256 7.00026 96.6802 6.976 96.7396 6.96425 96.7996 6.9658L97.9712 6.9658C98.0311 6.96551 98.0906 6.97832 98.1457 7.00336 98.2003 7.02839 98.2486 7.06508 98.2878 7.1108 98.3704 7.20142 98.4163 7.32003 98.4154 7.44285L98.4154 7.89477C98.9978 7.56542 99.6097 7.2919 100.243 7.07793 100.858 6.88673 101.499 6.79373 102.142 6.80243 103.564 6.80243 104.6 7.22453 105.249 8.06877 105.898 8.913 106.223 10.117 106.222 11.6807L106.222 19.3879C106.222 19.4491 106.21 19.5096 106.185 19.5658 106.161 19.622 106.126 19.6726 106.082 19.7147Z" fill="#FFFFFF" transform="matrix(1 0 0 1.0142 619 410)"/><path d="M144.86 19.7147C144.818 19.7592 144.768 19.7947 144.711 19.8188 144.655 19.843 144.594 19.8552 144.533 19.8548L143.407 19.8548C143.284 19.8523 143.166 19.8023 143.079 19.7153 142.991 19.6282 142.941 19.5108 142.938 19.3875L142.938 11.6918C142.948 11.1922 142.896 10.6932 142.784 10.2061 142.709 9.85647 142.548 9.53104 142.316 9.25873 142.1 9.02204 141.825 8.84829 141.519 8.75607 141.143 8.6463 140.751 8.59463 140.359 8.60285 139.833 8.60744 139.311 8.69434 138.812 8.86047 138.258 9.04254 137.717 9.26183 137.192 9.51683L137.192 19.3879C137.189 19.5109 137.139 19.6279 137.052 19.7149 136.965 19.8019 136.848 19.8521 136.725 19.8553L135.578 19.8553C135.518 19.8566 135.459 19.8447 135.404 19.8205 135.349 19.7963 135.3 19.7603 135.261 19.7152 135.177 19.6272 135.131 19.5101 135.131 19.3884L135.131 7.43367C135.129 7.31104 135.176 7.19268 135.261 7.10452 135.3 7.05937 135.349 7.02341 135.404 6.9992 135.459 6.97493 135.518 6.96304 135.578 6.96435L136.749 6.96435C136.809 6.9643 136.869 6.97725 136.924 7.00229 136.978 7.02728 137.027 7.06382 137.066 7.10935 137.15 7.19935 137.196 7.31839 137.194 7.4414L137.194 7.89332C137.776 7.56301 138.389 7.28944 139.024 7.07648 139.638 6.88503 140.278 6.79209 140.921 6.80098 142.343 6.80098 143.378 7.22308 144.028 8.06732 144.677 8.91156 145.001 10.1155 145 11.6793L145 19.3879C145 19.4491 144.988 19.5096 144.964 19.5658 144.94 19.622 144.904 19.6726 144.86 19.7147Z" fill="#FFFFFF" transform="matrix(1 0 0 1.0142 619 410)"/><path d="M93.2538 4.30602C93.2538 4.03835 93.1746 3.7767 93.0257 3.55414 92.8768 3.33159 92.6656 3.15813 92.4186 3.0557 92.1712 2.95327 91.8991 2.92647 91.6366 2.97869 91.3742 3.03091 91.133 3.1598 90.9435 3.34906 90.7545 3.53833 90.6255 3.77947 90.5733 4.042 90.5211 4.30451 90.5477 4.57662 90.6501 4.82391 90.7526 5.07118 90.9261 5.28254 91.1484 5.43126 91.3713 5.57999 91.6328 5.65935 91.9005 5.65935 92.2596 5.65935 92.6038 5.51677 92.8575 5.26297 93.1113 5.00917 93.2538 4.66494 93.2538 4.30602Z" fill="#FFFFFF" transform="matrix(1 0 0 1.0142 619 410)"/><path d="M26.8366 11.0683C27.2426 6.41963 23.6659 1.54425 13.4222 1.54425 11.6174 1.54425 6.119 1.54425 5.7333 5.96047 5.26833 11.3037 11.0814 18.793 17.3381 18.691 22.5866 18.6083 26.4562 15.4135 26.8366 11.0683ZM4.42105 16.5783C1.46257 13.0089-0.241667 8.93732 0.0280331 5.90198 0.50025 0.609967 6.16975 0 10.3917 0 27.9676 0 28.6008 9.94265 28.3634 12.5928 27.8526 18.3386 22.3464 22.6732 15.5972 22.6732 13.1157 22.6732 8.845 21.9177 4.42153 16.5798" fill="#FFFFFF" transform="matrix(1 0 0 1.0142 619 410)"/><path d="M24.825 9.24327C25.0521 6.65163 23.2551 3.86473 17.3608 3.86473 16.355 3.86473 13.2839 3.93627 13.0698 6.3945 12.8074 9.37377 16.0206 13.1186 18.9766 13.4666 22.0216 13.8214 24.6157 11.6643 24.825 9.24423L24.825 9.24327ZM10.9257 12.9093C9.06202 10.615 7.9518 8.0359 8.12532 6.10112 8.42643 2.7289 12.0234 2.30163 14.7136 2.30163 19.8447 2.30163 23.1608 3.8599 24.6108 5.5883 25.748 6.91002 26.316 8.62794 26.1909 10.367 25.8946 14.1452 22.0825 16.805 18.2826 16.805 17.3942 16.805 14.1447 16.8712 10.9257 12.9093Z" fill="#FFFFFF" transform="matrix(1 0 0 1.0142 619 410)"/><path d="M23.1555 7.77587C23.2396 6.8237 22.4383 6.02475 20.4648 5.82562 19.9389 5.77197 18.9104 5.8232 18.8311 6.72945 18.7345 7.82468 19.8703 9.33945 21.2101 9.33945 21.6702 9.36579 22.1237 9.22069 22.483 8.93219 22.8423 8.64369 23.0819 8.23223 23.1555 7.77732L23.1555 7.77587ZM19.6891 11.9243C18.6576 11.8349 17.4807 11.1254 16.5184 9.9789 15.5561 8.83243 15.0152 7.51535 15.1018 6.53515 15.255 4.82995 17.0834 4.63323 18.443 4.63323 20.9138 4.63323 22.7113 5.39883 23.4388 6.27657 23.7283 6.60441 23.9482 6.98769 24.0851 7.40312 24.2221 7.81854 24.2731 8.25746 24.2353 8.69323 23.9008 11.4221 21.0936 12.063 19.6891 11.9224" fill="#FFFFFF" transform="matrix(1 0 0 1.0142 619 410)"/><path d="M75.3135 6.9513 75.3188 2.48675C75.3183 2.42518 75.3304 2.36416 75.3546 2.30751 75.3787 2.25086 75.414 2.19982 75.459 2.1576 75.501 2.11236 75.5518 2.07637 75.6088 2.05191 75.6653 2.02744 75.7262 2.01505 75.7881 2.0155L76.9162 2.00922C76.9776 2.00861 77.038 2.02076 77.0946 2.0449 77.1506 2.06903 77.2014 2.10461 77.243 2.14938 77.2884 2.19144 77.3246 2.24234 77.3498 2.29895 77.3744 2.35556 77.3875 2.41668 77.388 2.47853L77.3855 6.98417 79.9206 6.98417C80.0443 6.98663 80.1623 7.03695 80.2503 7.12453 80.3377 7.21206 80.388 7.33014 80.3904 7.45397L80.3904 8.2505C80.388 8.37433 80.3377 8.49241 80.2503 8.57994 80.1623 8.66752 80.0443 8.71783 79.9206 8.7203L77.3836 8.7203 77.3836 16.8838C77.3242 17.3107 77.4252 17.7444 77.6668 18.1013 77.9539 18.3021 78.3039 18.3935 78.6524 18.3589L79.967 18.3589C80.2937 18.3589 80.4571 18.4686 80.4571 18.691L80.4571 19.5257C80.4571 19.7475 80.3169 19.8829 80.0361 19.9288 79.8012 19.9592 79.5436 19.9873 79.2628 20.0105 78.982 20.0337 78.7311 20.0462 78.5122 20.0462 78.0404 20.0514 77.5692 20.0086 77.1057 19.9186 76.7355 19.8502 76.3908 19.6833 76.1076 19.4353 75.8307 19.1726 75.6281 18.8414 75.5203 18.4754 75.3734 17.9647 75.3062 17.4344 75.3212 16.9031L75.3212 8.7203 69.2452 8.7203 69.2476 19.3879C69.2491 19.5098 69.2022 19.6272 69.1176 19.7147 69.079 19.7606 69.0302 19.7974 68.9755 19.8225 68.9209 19.8476 68.8615 19.8603 68.801 19.8597L67.6526 19.8597C67.5289 19.8563 67.4115 19.8057 67.3245 19.7183 67.237 19.6309 67.1862 19.5134 67.1828 19.3899L67.1828 8.69227 64.9083 8.43465C64.6096 8.4042 64.4641 8.26355 64.4641 8.01367L64.4641 7.3805C64.4617 7.32361 64.4718 7.26696 64.4941 7.21448 64.5158 7.16198 64.5492 7.11505 64.5917 7.07697 64.6782 6.99823 64.7913 6.95613 64.9083 6.95952L67.1828 6.95952 67.1828 5.26785C67.1688 4.73586 67.2438 4.20528 67.4047 3.69798 67.5313 3.31327 67.7537 2.96712 68.0509 2.69217 68.3462 2.43345 68.7 2.25092 69.0819 2.1605 69.5352 2.05381 69.9997 2.003 70.4656 2.00922 70.7242 2.00505 70.9828 2.02121 71.239 2.05755 71.4434 2.088 71.6256 2.11893 71.7803 2.14938 72.0766 2.22865 72.2269 2.35383 72.2269 2.52445L72.2269 3.30068C72.2269 3.53317 72.0819 3.65062 71.803 3.65062L70.6774 3.65062C70.4772 3.62776 70.2747 3.64511 70.0814 3.70163 69.8881 3.75815 69.7078 3.85271 69.5517 3.97977 69.3047 4.36158 69.1974 4.81699 69.2481 5.26882L69.2481 6.9484 75.3135 6.9513Z" fill="#FFFFFF" transform="matrix(1 0 0 1.0142 619 410)"/></g></svg>