<svg width="106" height="22" xmlns="http://www.w3.org/2000/svg" xmlns:xlink="http://www.w3.org/1999/xlink" xml:space="preserve" overflow="hidden"><defs><clipPath id="clip0"><rect x="281" y="346" width="106" height="22"/></clipPath></defs><g clip-path="url(#clip0)" transform="translate(-281 -346)"><path d="M18.9336 8.80532C18.9336 8.05348 18.8143 7.37031 18.5758 6.75941 18.3372 6.14854 17.9974 5.62443 17.5637 5.19067 17.1299 4.75691 16.6058 4.41714 15.9949 4.17857 15.384 3.94 14.7117 3.82072 13.9779 3.82072L8.80532 3.82072C8.06069 3.82072 7.38476 3.94 6.77389 4.17857 6.16299 4.41714 5.63527 4.75691 5.19427 5.19067 4.75327 5.62443 4.4135 6.14854 4.17494 6.75941 3.93637 7.37031 3.81708 8.05348 3.81708 8.80532L3.81708 12.8284C3.81708 13.5803 3.93637 14.2635 4.17494 14.8743 4.4135 15.4852 4.75327 16.0093 5.19427 16.4431 5.63527 16.8769 6.15939 17.2167 6.77389 17.4552 7.38476 17.6938 8.06432 17.813 8.80532 17.813L13.9418 17.813C14.6864 17.813 15.3623 17.6938 15.9732 17.4552 16.5841 17.2167 17.1118 16.8769 17.5528 16.4431 17.9938 16.0093 18.3336 15.4852 18.5721 14.8743 18.8107 14.2635 18.93 13.5803 18.93 12.8284L18.9336 8.80532ZM22.7507 12.8284C22.7507 14.1116 22.5302 15.29 22.0892 16.3672 21.6482 17.4443 21.0373 18.3733 20.253 19.1541 19.4686 19.9385 18.5432 20.5458 17.4733 20.9831 16.4034 21.4169 15.2358 21.6374 13.9743 21.6374L8.80532 21.6374C7.54381 21.6374 6.37266 21.4205 5.29911 20.9831 4.22192 20.5494 3.29297 19.9385 2.51219 19.1541 1.72781 18.3697 1.11693 17.4407 0.668714 16.3672 0.224109 15.29 0 14.108 0 12.8284L0 8.80532C0 7.53297 0.224109 6.35818 0.668714 5.27378 1.11332 4.19302 1.72781 3.26404 2.51219 2.48688 3.29657 1.70973 4.22555 1.09887 5.29911 0.65788 6.37627 0.21689 7.54381-0.00361471 8.80532-0.00361471L13.9707-0.00361471C15.2322-0.00361471 16.3997 0.21689 17.4697 0.65788 18.5396 1.09887 19.4686 1.70612 20.2493 2.48688 21.0337 3.26404 21.6446 4.19302 22.0856 5.27378 22.5266 6.35458 22.7471 7.53297 22.7471 8.80532L22.7471 12.8284" fill="#FFFFFF" transform="matrix(1 0 0 1.01439 281 346)"/><path d="M47.4967 9.09813C47.4967 9.96926 47.3882 10.7464 47.1749 11.4332 46.958 12.12 46.669 12.7236 46.3003 13.2441 45.9316 13.7683 45.5087 14.2165 45.0316 14.5888 44.5506 14.9611 44.0518 15.2647 43.5278 15.4997 43.0037 15.7346 42.4759 15.9045 41.941 16.013 41.4059 16.1214 40.9071 16.1756 40.4372 16.1756L31.8054 16.1756 31.8054 12.3585 40.4372 12.3585C40.9252 12.3188 41.3698 12.2176 41.7637 12.0585 42.1614 11.8959 42.5011 11.679 42.7831 11.4043 43.065 11.1296 43.2857 10.8006 43.4445 10.4139 43.6002 10.0271 43.6796 9.58969 43.6796 9.10171L43.6796 7.37031C43.6289 6.88954 43.5278 6.45217 43.3724 6.05095 43.2168 5.64972 43.0037 5.30634 42.7326 5.0244 42.4615 4.74246 42.1397 4.51834 41.7567 4.35568 41.3733 4.19302 40.9361 4.11348 40.4372 4.11348L31.8344 4.11348C31.3248 4.11348 30.9379 4.24724 30.6741 4.5111 30.4101 4.77496 30.2764 5.15813 30.2764 5.65696L30.2764 21.3482 26.4629 21.3482 26.4629 5.65696C26.4629 4.67739 26.6401 3.84601 26.9979 3.16284 27.3559 2.47967 27.8005 1.92663 28.3353 1.50371 28.8667 1.08441 29.4488 0.777167 30.0739 0.585592 30.6993 0.394014 31.2776 0.300018 31.8054 0.300018L40.4372 0.300018C41.2974 0.300018 42.0712 0.408461 42.7579 0.628957 43.441 0.84945 44.0483 1.14224 44.5688 1.51093 45.0928 1.87601 45.5374 2.30255 45.9061 2.77967 46.2748 3.26044 46.5749 3.75926 46.817 4.28338 47.0556 4.80752 47.2291 5.33524 47.3375 5.8702 47.446 6.40519 47.5002 6.90402 47.5002 7.37391L47.5002 9.09813" fill="#FFFFFF" transform="matrix(1 0 0 1.01439 281 346)"/><path d="M54.5995 21.341 50.7824 21.341 50.7824 0.292788 54.5995 0.292788 54.5995 21.341Z" fill="#FFFFFF" transform="matrix(1 0 0 1.01439 281 346)"/><path d="M79.8299 19.418C79.8299 19.6927 79.7792 19.9457 79.6816 20.1807 79.584 20.4156 79.4504 20.6181 79.2769 20.7916 79.1069 20.9615 78.9009 21.0988 78.6658 21.1964 78.4311 21.294 78.1778 21.3446 77.9032 21.3446L64.1349 21.3446C63.7843 21.3446 63.4048 21.3012 62.9963 21.2181 62.5915 21.135 62.1903 21.0048 61.7926 20.8277 61.3951 20.6506 61.0156 20.4229 60.654 20.1445 60.2926 19.8662 59.9708 19.5264 59.6926 19.1324 59.4142 18.7348 59.19 18.2758 59.0238 17.7516 58.8577 17.2275 58.7744 16.6383 58.7744 15.9841L58.7744 5.64972C58.7744 5.29911 58.8178 4.91957 58.901 4.5111 58.984 4.10627 59.1141 3.70504 59.2914 3.30744 59.4684 2.90982 59.6962 2.53028 59.9816 2.16882 60.2636 1.80735 60.6071 1.48564 61.001 1.20731 61.3987 0.928983 61.8541 0.704876 62.3746 0.538599 62.8916 0.372326 63.4807 0.289193 64.1349 0.289193L79.6491 0.289193 79.6491 4.10627 64.1349 4.10627C63.6361 4.10627 63.253 4.24003 62.9892 4.50389 62.7252 4.76775 62.5915 5.15813 62.5915 5.67864L62.5915 15.9804C62.5915 16.4684 62.7252 16.848 62.9963 17.1191 63.2638 17.3865 63.6434 17.5239 64.1349 17.5239L76.009 17.5239 76.009 12.7381 65.852 12.7381 65.852 8.8921 77.9032 8.8921C78.1778 8.8921 78.4311 8.94269 78.6658 9.04752 78.9009 9.14872 79.1034 9.28969 79.2769 9.46683 79.4466 9.64394 79.584 9.84634 79.6816 10.0777 79.7792 10.309 79.8299 10.5548 79.8299 10.8187L79.8299 19.418Z" fill="#FFFFFF" transform="matrix(1 0 0 1.01439 281 346)"/><path d="M102.078 8.80532C102.078 8.05348 101.959 7.37031 101.72 6.75941 101.482 6.14854 101.142 5.62443 100.708 5.19067 100.274 4.75691 99.7503 4.41714 99.1393 4.17857 98.5285 3.94 97.8562 3.82072 97.1223 3.82072L91.957 3.82072C91.2123 3.82072 90.5365 3.94 89.9257 4.17857 89.3146 4.41714 88.7871 4.75691 88.346 5.19067 87.9049 5.62443 87.5652 6.14854 87.3267 6.75941 87.0881 7.37031 86.9688 8.05348 86.9688 8.80532L86.9688 12.8284C86.9688 13.5803 87.0881 14.2635 87.3267 14.8743 87.5652 15.4852 87.9049 16.0093 88.346 16.4431 88.7871 16.8769 89.3111 17.2167 89.9257 17.4552 90.5365 17.6938 91.2161 17.813 91.957 17.813L97.0898 17.813C97.8345 17.813 98.5103 17.6938 99.1214 17.4552 99.7322 17.2167 100.26 16.8769 100.701 16.4431 101.142 16.0093 101.482 15.4852 101.72 14.8743 101.959 14.2635 102.078 13.5803 102.078 12.8284L102.078 8.80532ZM105.895 12.8284C105.895 14.1116 105.675 15.29 105.234 16.3672 104.793 17.4443 104.182 18.3733 103.397 19.1541 102.613 19.9385 101.688 20.5458 100.618 20.9831 99.5478 21.4169 98.3802 21.6374 97.1188 21.6374L91.9535 21.6374C90.6918 21.6374 89.5207 21.4205 88.4471 20.9831 87.37 20.5494 86.441 19.9385 85.6602 19.1541 84.8759 18.3697 84.2651 17.4407 83.8167 16.3672 83.3721 15.29 83.1482 14.1116 83.1482 12.8284L83.1482 8.80532C83.1482 7.53297 83.3721 6.35818 83.8167 5.27378 84.2613 4.19302 84.8759 3.26404 85.6602 2.48688 86.4448 1.70973 87.3736 1.09887 88.4471 0.65788 89.5245 0.21689 90.6918-0.00361471 91.9535-0.00361471L97.1188-0.00361471C98.3802-0.00361471 99.5478 0.21689 100.618 0.65788 101.688 1.09887 102.617 1.70612 103.397 2.48688 104.182 3.26404 104.793 4.19302 105.234 5.27378 105.675 6.35458 105.895 7.53297 105.895 8.80532L105.895 12.8284Z" fill="#FFFFFF" transform="matrix(1 0 0 1.01439 281 346)"/></g></svg>