<svg width="93" height="27" xmlns="http://www.w3.org/2000/svg" xmlns:xlink="http://www.w3.org/1999/xlink" xml:space="preserve" overflow="hidden"><g transform="translate(-580 -228)"><path d="M0 22.5159 0 14.9543 4.54106 12.3325 9.40017 15.1379C9.92921 15.4438 10.3686 15.8834 10.6741 16.4127 10.9797 16.942 11.1406 17.5424 11.1408 18.1535L11.1408 23.5612 6.47584 26.2543 0 22.5159Z" fill="#FFFFFF" transform="matrix(1 0 0 1.01613 580 228)"/><path d="M25.903 22.5159 25.903 14.9543 21.3619 12.3325 16.5028 15.1379C15.9738 15.4438 15.5344 15.8834 15.2289 16.4127 14.9233 16.942 14.7624 17.5424 14.7622 18.1535L14.7622 23.5612 19.425 26.2543 25.903 22.5159Z" fill="#FFFFFF" transform="matrix(1 0 0 1.01613 580 228)"/><path d="M40.7201 26.2543C38.5126 26.3283 36.3326 25.7482 34.4538 24.5873 33.6226 24.0515 32.9145 23.3457 32.376 22.5162 31.8376 21.6867 31.4813 20.7525 31.3304 19.7752L35.3549 19.7752C35.9677 21.8965 37.8201 22.957 40.9119 22.9567 42.0717 23.012 43.2263 22.7686 44.265 22.2498 44.6495 22.0558 44.9708 21.7564 45.1914 21.3865 45.412 21.0167 45.5227 20.5917 45.5106 20.1612 45.5106 18.6796 44.4629 17.8749 42.3678 17.7469L38.0756 17.4017C36.4614 17.331 34.9056 16.7768 33.6104 15.811 33.0425 15.349 32.592 14.7593 32.2956 14.0899 31.9993 13.4206 31.8654 12.6906 31.9051 11.9596 31.8696 11.087 32.0589 10.2199 32.4548 9.44154 32.8507 8.6631 33.4401 7.99947 34.1663 7.51429 35.6733 6.46744 37.6276 5.94364 40.0292 5.9429 42.1215 5.87456 44.1896 6.40619 45.9896 7.47502 46.7969 7.98739 47.4907 8.65988 48.0279 9.45093 48.5651 10.242 48.9344 11.1348 49.1129 12.0741L45.0504 12.0741C44.7057 11.1206 44.0051 10.3376 43.0957 9.88935 42.1421 9.42179 41.0917 9.18548 40.0298 9.19965 38.9481 9.14969 37.872 9.38078 36.9063 9.87058 36.5484 10.0497 36.2486 10.3266 36.0416 10.6693 35.8346 11.0119 35.729 11.4062 35.7371 11.8065 35.7371 13.2121 36.7719 13.9785 38.8417 14.1057L43.0193 14.4127C45.0106 14.5657 46.5628 15.0958 47.676 16.0029 48.2364 16.4776 48.6788 17.076 48.968 17.7511 49.2572 18.4261 49.3855 19.1592 49.3425 19.8924 49.3785 20.8145 49.1771 21.7304 48.7578 22.5524 48.3384 23.3744 47.7151 24.075 46.9476 24.5873 45.3502 25.6986 43.2743 26.2543 40.7201 26.2543" fill="#FFFFFF" transform="matrix(1 0 0 1.01613 580 228)"/><path d="M61.7206 5.94232C63.0236 5.91151 64.3187 6.15297 65.5232 6.65127 66.7276 7.14957 67.8148 7.89375 68.7152 8.8362 69.6471 9.79644 70.3766 10.9341 70.8606 12.1816 71.3445 13.4291 71.5729 14.7611 71.5322 16.0986 71.5742 17.4475 71.3371 18.7906 70.8358 20.0436 70.3346 21.2966 69.5798 22.4326 68.6189 23.3803 67.6508 24.332 66.4998 25.0776 65.2353 25.5719 63.971 26.0663 62.6195 26.2992 61.2626 26.2565 58.2481 26.2565 55.7888 25.3048 53.8846 23.4013 52.9381 22.4493 52.1964 21.3137 51.7053 20.0644 51.214 18.8151 50.9837 17.4784 51.0283 16.1367L51.0283 0.649581 54.8603 0.649581 54.8603 9.31462C55.613 8.26119 56.6219 7.4171 57.7918 6.86214 59.0112 6.25351 60.356 5.93852 61.7189 5.94232L61.7206 5.94232ZM54.9371 16.0986C54.9039 16.949 55.0411 17.7975 55.3407 18.5942 55.6401 19.3909 56.0959 20.1195 56.6811 20.7375 57.283 21.3427 58.0047 21.8156 58.7999 22.1258 59.5951 22.436 60.4463 22.5768 61.299 22.539 62.1375 22.5629 62.9718 22.4135 63.75 22.1003 64.5281 21.7872 65.2332 21.3168 65.8213 20.7187 66.4189 20.1109 66.8868 19.3878 67.1964 18.5936 67.5061 17.7994 67.6511 16.9505 67.6228 16.0986 67.6472 15.2504 67.5003 14.4061 67.1908 13.6161 66.8814 12.826 66.4158 12.1065 65.8219 11.5006 65.2368 10.8971 64.5326 10.4219 63.7541 10.1051 62.9756 9.78821 62.1398 9.63657 61.2996 9.65978 60.4534 9.63391 59.6111 9.78422 58.826 10.1011 58.0409 10.4179 57.3303 10.8946 56.7392 11.5006 56.1449 12.1064 55.679 12.8259 55.3695 13.6161 55.0599 14.4063 54.913 15.2508 54.9377 16.0991" fill="#FFFFFF" transform="matrix(1 0 0 1.01613 580 228)"/><path d="M88.3593 19.7779C87.9372 20.4517 87.3817 21.032 86.7271 21.4832 85.7096 22.1886 84.4964 22.5571 83.2585 22.5369 82.4369 22.563 81.6192 22.4142 80.8594 22.1005 80.0997 21.7868 79.4152 21.3152 78.8513 20.7171 77.6872 19.4668 77.0669 17.8054 77.1267 16.0981 77.1009 15.2546 77.2417 14.4143 77.5409 13.6252 77.8402 12.8361 78.292 12.1138 78.8706 11.4995 79.4301 10.8997 80.1105 10.4255 80.867 10.1085 81.6234 9.79139 82.4386 9.6387 83.2585 9.6604 84.5032 9.63471 85.7241 10.0036 86.7464 10.7141 87.2776 11.0872 87.7422 11.547 88.121 12.0742L92.4907 12.0742C91.9097 10.4808 90.8955 9.08087 89.5634 8.0315 87.7682 6.62373 85.5387 5.88523 83.2579 5.94294 81.927 5.90398 80.6021 6.1392 79.3659 6.63399 78.1297 7.12879 77.0084 7.87258 76.0719 8.81913 75.1265 9.77536 74.3857 10.9141 73.8948 12.1661 73.4039 13.418 73.1732 14.7568 73.2168 16.1009 73.1736 17.4447 73.4045 18.7833 73.8957 20.0349 74.3867 21.2865 75.1275 22.425 76.073 23.3809 77.0095 24.3276 78.1307 25.0714 79.367 25.5661 80.6033 26.0609 81.928 26.2961 83.2591 26.2571 85.531 26.3166 87.7529 25.5841 89.5439 24.1851 90.9806 23.0522 92.0479 21.5183 92.6112 19.7779L88.3593 19.7779Z" fill="#FFFFFF" transform="matrix(1 0 0 1.01613 580 228)"/><path d="M12.9521 0 6.47679 3.73848 6.47679 9.26962 10.6694 11.69C11.3634 12.0908 12.1508 12.3018 12.9523 12.3018 13.7538 12.3018 14.5412 12.0908 15.2353 11.69L19.429 9.26847 19.429 3.73738 12.9521 0ZM12.9521 10.2055C12.2076 10.2055 11.4936 9.90973 10.9672 9.38335 10.4408 8.85689 10.1451 8.14291 10.1451 7.39843 10.145 7.02976 10.2175 6.66468 10.3585 6.32405 10.4996 5.98343 10.7063 5.67391 10.967 5.41319 11.2277 5.15247 11.5371 4.94566 11.8777 4.80456 12.2183 4.66346 12.5834 4.59083 12.9521 4.59083 13.6965 4.59083 14.4106 4.88657 14.937 5.413 15.4634 5.93942 15.7592 6.65341 15.7592 7.39788 15.7592 7.76655 15.6866 8.13163 15.5456 8.47226 15.4046 8.81289 15.1978 9.12241 14.9371 9.38308 14.6765 9.64383 14.367 9.85065 14.0264 9.99174 13.6858 10.1328 13.3208 10.2055 12.9521 10.2055" fill="#FFFFFF" transform="matrix(1 0 0 1.01613 580 228)"/></g></svg>